<?xml version="1.0" encoding="UTF-8" standalone="no"?>
<!-- Created with Inkscape (http://www.inkscape.org/) -->

<svg
   xmlns:dc="http://purl.org/dc/elements/1.1/"
   xmlns:cc="http://creativecommons.org/ns#"
   xmlns:rdf="http://www.w3.org/1999/02/22-rdf-syntax-ns#"
   xmlns:svg="http://www.w3.org/2000/svg"
   xmlns="http://www.w3.org/2000/svg"
   xmlns:sodipodi="http://sodipodi.sourceforge.net/DTD/sodipodi-0.dtd"
   xmlns:inkscape="http://www.inkscape.org/namespaces/inkscape"
   width="210mm"
   height="210mm"
   viewBox="0 0 210 210"
   version="1.1"
   id="svg8"
   inkscape:version="0.92.3 (2405546, 2018-03-11)"
   sodipodi:docname="WEATHERINO.svg">
  <title
     id="title139">WEATHER INO</title>
  <defs
     id="defs2" />
  <sodipodi:namedview
     id="base"
     pagecolor="#ffffff"
     bordercolor="#666666"
     borderopacity="1.0"
     inkscape:pageopacity="0.0"
     inkscape:pageshadow="2"
     inkscape:zoom="0.35"
     inkscape:cx="400"
     inkscape:cy="560"
     inkscape:document-units="mm"
     inkscape:current-layer="layer1"
     showgrid="false"
     inkscape:window-width="1600"
     inkscape:window-height="837"
     inkscape:window-x="-8"
     inkscape:window-y="-8"
     inkscape:window-maximized="1" />
  <metadata
     id="metadata5">
    <rdf:RDF>
      <cc:Work
         rdf:about="">
        <dc:format>image/svg+xml</dc:format>
        <dc:type
           rdf:resource="http://purl.org/dc/dcmitype/StillImage" />
        <dc:title>WEATHER INO</dc:title>
      </cc:Work>
    </rdf:RDF>
  </metadata>
  <g
     inkscape:label="Ebene 1"
     inkscape:groupmode="layer"
     id="layer1"
     transform="translate(0,-87)">
    <ellipse
       style="fill:#ffff00;stroke-width:0.12881111"
       id="path10"
       cx="107.28083"
       cy="189.1759"
       rx="48.34314"
       ry="48.078739" />
    <path
       style="fill:#ffff00;stroke-width:0.05367975"
       d="m 55.181905,150.02261 a 10.541137,4.3079166 27.279023 0 0 -0.871838,-0.4328 l -23.175841,-12.16691 -0.282747,-0.14844 -0.0023,0.004 a 10.541137,4.3079166 27.279023 0 0 -11.188976,-1.01322 10.541137,4.3079166 27.279023 0 0 6.910483,8.48664 l -0.0033,0.005 0.282745,0.14844 23.659631,12.4209 0.01532,-0.0267 a 10.541137,4.3079166 27.279023 0 0 0.372762,0.20552 10.541137,4.3079166 27.279023 0 0 11.473989,1.15753 10.541137,4.3079166 27.279023 0 0 -7.189996,-8.64071 z"
       id="path12"
       inkscape:connector-curvature="0" />
    <path
       style="fill:#ffff00;stroke-width:0.05367975"
       d="m 72.977318,134.53617 a 10.682822,4.2507811 54.990487 0 0 -0.578444,-0.79896 l -15.079208,-21.82538 -0.183965,-0.26626 -0.0044,0.002 a 10.682822,4.2507811 54.990487 0 0 -9.464231,-6.22779 10.682822,4.2507811 54.990487 0 0 2.312939,10.81534 l -0.0054,0.002 0.183965,0.26628 15.39397,22.28096 0.02557,-0.0164 a 10.682822,4.2507811 54.990487 0 0 0.238125,0.35974 10.682822,4.2507811 54.990487 0 0 9.6521,6.49136 10.682822,4.2507811 54.990487 0 0 -2.491507,-11.08507 z"
       id="path12-4"
       inkscape:connector-curvature="0"
       inkscape:transform-center-x="2.630925"
       inkscape:transform-center-y="3.3847939" />
    <path
       style="fill:#ffff00;stroke-width:0.05367975"
       d="m 101.9985,125.79551 a 10.764536,4.2185131 74.253953 0 0 -0.28228,-0.95317 l -7.031276,-25.786883 -0.08578,-0.3146 -0.0047,10e-4 A 10.764536,4.2185131 74.253953 0 0 87.730102,89.588554 10.764536,4.2185131 74.253953 0 0 86.35829,100.5725 l -0.0061,10e-4 0.08578,0.3146 7.178038,26.32518 0.02945,-0.007 a 10.764536,4.2185131 74.253953 0 0 0.106085,0.42142 10.764536,4.2185131 74.253953 0 0 6.954687,9.46676 10.764536,4.2185131 74.253953 0 0 1.29224,-11.29994 z"
       id="path12-9"
       inkscape:connector-curvature="0" />
    <path
       style="fill:#ffff00;stroke-width:0.05367975"
       d="m 125.12112,128.75841 a 4.213589,10.777116 10.773823 0 0 0.17805,-0.97949 l 5.35397,-26.21037 0.0654,-0.31976 -0.005,-0.001 a 4.213589,10.777116 10.773823 0 0 -1.97245,-11.384415 4.213589,10.777116 10.773823 0 0 -6.15191,9.084402 l -0.005,-0.002 -0.0654,0.31978 -5.46575,26.757473 0.0291,0.008 a 4.213589,10.777116 10.773823 0 0 -0.0953,0.42413 4.213589,10.777116 10.773823 0 0 1.91171,11.70529 4.213589,10.777116 10.773823 0 0 6.22336,-9.40241 z"
       id="path12-4-2"
       inkscape:connector-curvature="0"
       inkscape:transform-center-x="4.2027648"
       inkscape:transform-center-y="0.30417894" />
    <path
       style="fill:#ffff00;stroke-width:0.05367975"
       d="m 151.28884,138.2703 a 4.2453785,10.696417 32.33821 0 0 0.52412,-0.83775 l 14.57046,-22.18863 0.17776,-0.2707 -0.004,-0.003 a 4.2453785,10.696417 32.33821 0 0 2.34889,-11.30842 4.2453785,10.696417 32.33821 0 0 -9.02826,6.0203 l -0.004,-0.003 -0.17776,0.2707 -14.87463,22.6518 0.0239,0.0189 a 4.2453785,10.696417 32.33821 0 0 -0.24382,0.35568 4.2453785,10.696417 32.33821 0 0 -2.52283,11.58195 4.2453785,10.696417 32.33821 0 0 9.21105,-6.28702 z"
       id="path12-90"
       inkscape:connector-curvature="0" />
    <path
       style="fill:#ffff00;stroke-width:0.05367975"
       d="m 164.03511,158.35232 a 4.302922,10.553372 59.948193 0 0 0.8411,-0.49307 l 22.88807,-12.73128 0.27923,-0.15532 -0.002,-0.004 a 4.302922,10.553372 59.948193 0 0 7.16395,-8.90666 4.302922,10.553372 59.948193 0 0 -10.70927,1.03708 l -0.002,-0.005 -0.27924,0.15531 -23.36583,12.99703 0.0127,0.0281 a 4.302922,10.553372 59.948193 0 0 -0.37598,0.19921 4.302922,10.553372 59.948193 0 0 -7.44105,9.06631 4.302922,10.553372 59.948193 0 0 10.99117,-1.18647 z"
       id="path12-4-28"
       inkscape:connector-curvature="0"
       inkscape:transform-center-x="2.9407799"
       inkscape:transform-center-y="-3.1024727" />
    <path
       style="fill:#ffff00;stroke-width:0.05367975"
       d="m 168.90208,189.07739 a 4.3300758,10.487192 80.309007 0 0 0.95345,-0.17154 l 25.71995,-4.02228 0.31378,-0.049 -7.6e-4,-0.004 a 4.3300758,10.487192 80.309007 0 0 9.66528,-5.89142 4.3300758,10.487192 80.309007 0 0 -10.41995,-2.7486 l -3.9e-4,-0.007 -0.31378,0.049 -26.25685,4.10623 0.002,0.0308 a 4.3300758,10.487192 80.309007 0 0 -0.41924,0.0567 4.3300758,10.487192 80.309007 0 0 -9.97848,5.94529 4.3300758,10.487192 80.309007 0 0 10.73431,2.70605 z"
       id="path12-9-2"
       inkscape:connector-curvature="0" />
    <path
       style="fill:#ffff00;stroke-width:0.05367975"
       d="m 163.21053,212.34029 a 10.509955,4.3206977 18.949801 0 0 0.92237,0.30204 l 24.60942,8.68464 0.30024,0.10598 0.002,-0.005 a 10.509955,4.3206977 18.949801 0 0 11.2161,-0.61938 10.509955,4.3206977 18.949801 0 0 -8.00271,-7.39987 l 0.002,-0.005 -0.30022,-0.10598 -25.12313,-8.86593 -0.0113,0.0286 a 10.509955,4.3206977 18.949801 0 0 -0.39717,-0.14939 10.509955,4.3206977 18.949801 0 0 -11.51795,0.51797 10.509955,4.3206977 18.949801 0 0 8.30049,7.51187 z"
       id="path12-4-2-6"
       inkscape:connector-curvature="0"
       inkscape:transform-center-x="-0.22117966"
       inkscape:transform-center-y="-4.3316654" />
    <path
       style="fill:#ffff00;stroke-width:0.05367975"
       d="m 152.80898,238 a 10.534798,4.3105088 36.116004 0 0 0.79448,0.56134 l 21.01684,15.57613 0.2564,0.19004 0.002,-0.003 a 10.534798,4.3105088 36.116004 0 0 10.89869,2.71715 10.534798,4.3105088 36.116004 0 0 -5.51501,-9.4452 l 0.004,-0.005 -0.25639,-0.19005 -21.45556,-15.90129 -0.0196,0.024 a 10.534798,4.3105088 36.116004 0 0 -0.33652,-0.26024 10.534798,4.3105088 36.116004 0 0 -11.15796,-2.90347 10.534798,4.3105088 36.116004 0 0 5.76735,9.6403 z"
       id="path12-98"
       inkscape:connector-curvature="0" />
    <path
       style="fill:#ffff00;stroke-width:0.05367975"
       d="m 132.83,250.57234 a 10.67653,4.2532863 63.877285 0 0 0.44793,0.87814 l 11.52255,23.87756 0.14058,0.29131 0.004,-0.002 a 10.67653,4.2532863 63.877285 0 0 8.38777,7.60498 10.67653,4.2532863 63.877285 0 0 -0.61206,-11.04099 l 0.005,-10e-4 -0.14057,-0.29131 -11.76307,-24.37598 -0.0278,0.0123 a 10.67653,4.2532863 63.877285 0 0 -0.17963,-0.39194 10.67653,4.2532863 63.877285 0 0 -8.5326,-7.89422 10.67653,4.2532863 63.877285 0 0 0.74677,11.33488 z"
       id="path12-4-5"
       inkscape:connector-curvature="0"
       inkscape:transform-center-x="-3.1219351"
       inkscape:transform-center-y="-2.9410245" />
    <path
       style="fill:#ffff00;stroke-width:0.05367975"
       d="m 102.80287,254.75777 a 10.761756,4.2196032 83.163645 0 0 0.13145,0.98508 l 2.95776,26.55746 0.0361,0.324 0.004,-4.9e-4 a 10.761756,4.2196032 83.163645 0 0 5.36632,10.09682 10.761756,4.2196032 83.163645 0 0 3.0548,-10.64245 l 0.005,-1.1e-4 -0.0361,-0.324 -3.0195,-27.11184 -0.0301,0.002 a 10.761756,4.2196032 83.163645 0 0 -0.0397,-0.43266 10.761756,4.2196032 83.163645 0 0 -5.40706,-10.42041 10.761756,4.2196032 83.163645 0 0 -3.02507,10.96688 z"
       id="path12-9-23"
       inkscape:connector-curvature="0" />
    <path
       style="fill:#ffff00;stroke-width:0.05367975"
       d="m 80.414627,248.28395 a 4.2121523,10.780792 19.680211 0 0 -0.327453,0.9405 l -9.345165,25.0764 -0.114135,0.30589 0.0051,0.002 a 4.2121523,10.780792 19.680211 0 0 0.187588,11.55105 4.2121523,10.780792 19.680211 0 0 7.483955,-8.03248 l 0.0047,0.003 0.114139,-0.30589 9.540251,-25.59985 -0.02773,-0.0116 a 4.2121523,10.780792 19.680211 0 0 0.159818,-0.40444 4.2121523,10.780792 19.680211 0 0 -0.07791,-11.85879 4.2121523,10.780792 19.680211 0 0 -7.603755,8.33574 z"
       id="path12-4-2-3"
       inkscape:connector-curvature="0"
       inkscape:transform-center-x="-4.1997649"
       inkscape:transform-center-y="0.3442458" />
    <path
       style="fill:#ffff00;stroke-width:0.05367975"
       d="m 56.030856,234.87229 a 4.2426402,10.703321 41.214375 0 0 -0.647482,0.74736 l -17.829441,19.68916 -0.217528,0.24021 0.0044,0.004 a 4.2426402,10.703321 41.214375 0 0 -4.070388,10.81322 4.2426402,10.703321 41.214375 0 0 9.851935,-4.56379 l 0.0044,0.004 0.217522,-0.24022 18.201637,-20.10014 -0.02065,-0.0223 a 4.2426402,10.703321 41.214375 0 0 0.295941,-0.31404 4.2426402,10.703321 41.214375 0 0 4.284547,-11.05682 4.2426402,10.703321 41.214375 0 0 -10.073801,4.79929 z"
       id="path12-90-1"
       inkscape:connector-curvature="0" />
    <path
       style="fill:#ffff00;stroke-width:0.05367975"
       d="m 46.543667,213.07508 a 4.300664,10.558913 68.775652 0 0 -0.907342,0.35818 l -24.584597,9.06904 -0.299929,0.11063 0.0015,0.005 a 4.300664,10.558913 68.775652 0 0 -8.456419,7.70165 4.300664,10.558913 68.775652 0 0 10.741902,0.61776 l 0.0015,0.005 0.299944,-0.11062 25.097769,-9.25833 -0.0083,-0.0297 a 4.300664,10.558913 68.775652 0 0 0.402327,-0.13916 4.300664,10.558913 68.775652 0 0 8.754915,-7.81689 4.300664,10.558913 68.775652 0 0 -11.043545,-0.51338 z"
       id="path12-4-28-3"
       inkscape:connector-curvature="0"
       inkscape:transform-center-x="-2.4254208"
       inkscape:transform-center-y="3.5168736" />
    <path
       style="fill:#ffff00;stroke-width:0.05367975"
       d="m 40.430697,195.92003 a 4.2328711,10.728023 78.565042 0 0 -0.970471,0.20125 l -26.179624,4.83481 -0.319399,0.059 8.09e-4,0.007 a 4.2328711,10.728023 78.565042 0 0 -9.8358036,6.11947 4.2328711,10.728023 78.565042 0 0 10.6083736,2.34216 l 8.1e-4,0.007 0.3194,-0.059 26.726104,-4.9357 -0.0027,-0.0303 a 4.2328711,10.728023 78.565042 0 0 0.42674,-0.0701 4.2328711,10.728023 78.565042 0 0 10.154607,-6.18318 4.2328711,10.728023 78.565042 0 0 -10.928346,-2.28955 z"
       id="path12-90-1-8"
       inkscape:connector-curvature="0" />
    <path
       style="fill:#ffff00;stroke-width:0.05367975"
       d="m 46.212809,172.87224 a 10.561458,4.2996276 16.018125 0 0 -0.93906,-0.26503 l -25.055521,-7.68596 -0.30567,-0.0937 -0.0021,0.005 a 10.561458,4.2996276 16.018125 0 0 -11.4171248,0.99375 10.561458,4.2996276 16.018125 0 0 8.1500508,6.99435 l -0.0021,0.005 0.305668,0.0938 25.578523,7.8464 0.01158,-0.0286 a 10.561458,4.2996276 16.018125 0 0 0.404384,0.13312 10.561458,4.2996276 16.018125 0 0 11.724465,-0.90449 10.561458,4.2996276 16.018125 0 0 -8.453259,-7.09413 z"
       id="path12-4-28-3-0"
       inkscape:connector-curvature="0"
       inkscape:transform-center-x="0.22377781"
       inkscape:transform-center-y="4.2634486" />
  </g>
</svg>
